PathFileType	4	(X/Y/Z)	C:/Users/opensim2020/Desktop/walking_exp_matlab/subject02_walking10_straight_01.trc	
DataRate	CameraRate	NumFrames	NumMarkers	Units	OrigDataRate	OrigDataStartFrame	OrigNumFrames	
100.00	100.00	6	43	mm	100.00	654	328	
Frame#	Time	LFHD			RFHD			LBHD			RBHD			C7			T10			CLAV			STRN			RBAK			LSHO			LUPA			LELB			LFRM			LWRA			LWRB			LFIN			RSHO			RUPA			RELB			RFRM			RWRA			RWRB			RFIN			LASI			RASI			LPSI			RPSI			LTHI			LKNE			LTIB			LANK			LHEE			LTOE			RTHI			RKNE			RTIB			RANK			RHEE			RTOE			*39			*40			*41			*42			
		X1	Y1	Z1	X2	Y2	Z2	X3	Y3	Z3	X4	Y4	Z4	X5	Y5	Z5	X6	Y6	Z6	X7	Y7	Z7	X8	Y8	Z8	X9	Y9	Z9	X10	Y10	Z10	X11	Y11	Z11	X12	Y12	Z12	X13	Y13	Z13	X14	Y14	Z14	X15	Y15	Z15	X16	Y16	Z16	X17	Y17	Z17	X18	Y18	Z18	X19	Y19	Z19	X20	Y20	Z20	X21	Y21	Z21	X22	Y22	Z22	X23	Y23	Z23	X24	Y24	Z24	X25	Y25	Z25	X26	Y26	Z26	X27	Y27	Z27	X28	Y28	Z28	X29	Y29	Z29	X30	Y30	Z30	X31	Y31	Z31	X32	Y32	Z32	X33	Y33	Z33	X34	Y34	Z34	X35	Y35	Z35	X36	Y36	Z36	X37	Y37	Z37	X38	Y38	Z38	X39	Y39	Z39	X40	Y40	Z40	X41	Y41	Z41	X42	Y42	Z42	X43	Y43	Z43	

206	2.050	1458.64697	-30.28591	1759.39209	1600.62659	-18.02306	1734.45654	1448.02905	-127.83351	1644.61377	1588.93604	-126.93703	1614.28711	1507.66455	-146.94043	1515.87549	1512.16821	-190.06526	1240.72974	1497.35645	-4.69735	1456.93420	1502.94568	52.62856	1285.22180	1567.11060	-198.47934	1341.34192	1327.24158	-66.76440	1502.05200	1241.50256	-69.37772	1302.59741	1229.26160	-66.79765	1160.54456	1218.24109	-40.31265	1030.17346	1254.10986	31.18878	914.79321	1219.24402	-12.82832	909.92346	1218.36230	15.32884	849.25757	1694.90625	-69.12029	1481.16931	1774.23303	-96.78613	1287.74292	1786.90015	-80.21816	1141.14380	1803.13171	-48.64196	1025.21228	1781.46326	4.24554	900.79535	1813.62585	-42.55365	895.47083	1815.07007	-3.25411	833.97192	1380.48608	42.57804	979.97205	1631.47559	63.27112	983.85400	1471.43530	-161.50551	1022.36725	1588.19080	-156.88284	1027.55615	1305.94324	-47.15128	673.03052	1306.39551	-79.85474	489.23404	1304.42444	-227.87077	373.91769	1319.53699	-356.97379	192.85907	1378.69995	-389.00595	185.05339	1275.53467	-282.64883	60.68310	1703.70959	26.31562	677.95203	1658.67566	45.99689	468.61279	1661.59570	18.90606	280.72211	1618.16895	9.33820	89.24715	1561.62585	-23.23789	37.86333	1637.06055	162.49577	37.71586	1554.59338	-144.68420	1779.92590	-3356.76587	2845.87500	1034.13733						 
207	2.060	1460.89990	-23.49727	1760.61316	1603.03064	-10.87984	1735.69739	1450.62170	-120.74040	1645.65735	1591.30493	-119.58461	1615.46558	1510.81091	-139.49933	1517.16052	1516.05005	-182.89133	1242.04553	1499.60278	2.65696	1458.03149	1504.94690	59.82043	1286.17188	1571.36230	-190.97661	1343.17566	1329.84399	-60.85459	1502.98328	1244.67773	-64.37103	1303.31335	1232.81946	-62.16071	1161.20728	1222.14478	-36.28695	1030.64880	1257.30225	34.42030	914.77515	1222.92822	-9.80650	910.25330	1222.23340	17.91995	849.28754	1697.53821	-60.53710	1482.64844	1777.52881	-87.64857	1289.25403	1790.31201	-70.82536	1142.74622	1806.53040	-38.92004	1026.80896	1784.52490	14.15112	902.55072	1816.81714	-32.59748	897.10626	1818.29248	6.98867	835.78894	1381.41748	48.20185	981.45990	1633.17126	70.97170	983.62408	1475.66504	-155.18375	1023.45898	1592.12061	-149.10406	1028.73486	1307.65625	-35.63709	674.10901	1308.39001	-64.50630	490.39752	1308.49353	-212.72432	376.10953	1323.99829	-341.88489	195.02821	1383.55798	-373.33545	185.80977	1275.57520	-266.70331	65.20716	1705.02417	30.92738	677.90167	1659.27637	47.95155	468.04483	1661.99548	19.52542	280.71793	1618.11658	9.47209	89.26398	1561.54517	-23.20777	37.90813	1637.04138	162.56577	37.69591	1557.38159	-137.55655	1781.08276	-3360.34912	2845.12378	1034.10681						 
208	2.070	1463.34387	-16.54927	1761.78467	1605.28992	-3.75704	1736.89893	1453.05176	-113.63865	1646.64612	1593.41821	-112.38785	1616.33228	1513.92603	-131.99365	1518.47241	1519.97180	-175.88873	1243.48083	1501.74841	9.96320	1459.11914	1506.80151	66.76357	1286.99011	1575.36145	-183.52014	1344.84131	1332.33313	-54.90966	1503.83167	1248.01831	-58.89119	1303.97632	1236.21033	-57.61897	1161.86523	1225.54541	-32.98976	1031.25964	1260.48877	37.66893	914.96643	1226.68347	-6.64347	910.52911	1225.90466	20.25339	849.24762	1700.08960	-51.36174	1483.98120	1780.79553	-78.33469	1290.69446	1793.62097	-61.40902	1144.19800	1809.71826	-29.14464	1028.38062	1787.57849	24.14487	904.37854	1819.95483	-22.53588	898.66412	1821.40210	17.25731	837.61810	1382.15466	53.71740	982.91675	1634.38977	77.66931	983.13220	1479.71997	-148.99806	1024.43494	1595.90857	-142.11865	1030.07495	1309.26147	-24.63245	675.52936	1310.35168	-49.29507	491.81113	1312.55603	-197.20721	377.70535	1328.48096	-326.27734	196.38876	1388.16138	-357.03662	185.50348	1276.22485	-249.83409	68.99429	1705.88892	35.22040	677.34955	1660.27771	49.95805	468.01785	1662.49719	19.70630	280.79156	1617.80286	9.38702	89.22277	1561.42871	-23.21811	37.92016	1637.08337	162.61775	37.74835	1559.60156	-130.70921	1781.83032	-3356.88770	2846.03345	1033.96204						 
209	2.080	1465.50500	-9.76276	1762.97009	1607.51709	3.35476	1738.05493	1455.47083	-106.65133	1647.59290	1596.08862	-104.86855	1617.36133	1516.94385	-124.55959	1519.77100	1523.89722	-168.94698	1244.87598	1503.73340	17.15245	1460.11133	1508.75061	74.00111	1287.91394	1579.10571	-176.02583	1346.32825	1334.81580	-49.04513	1504.64612	1250.86243	-54.26914	1304.66040	1239.45667	-53.14738	1162.51965	1228.74646	-29.23995	1032.11218	1263.49548	40.83540	915.09802	1229.73633	-3.74018	910.87244	1229.60046	23.15918	849.26367	1702.62463	-42.30052	1485.36365	1783.75195	-69.01767	1291.92188	1796.88428	-51.80338	1145.63843	1812.78796	-19.26050	1029.85645	1790.47534	34.16525	905.96338	1822.87793	-12.56931	900.10339	1824.43567	27.68385	839.32397	1382.92822	58.94694	984.33679	1635.94055	84.65739	983.02460	1483.60754	-143.01442	1025.42664	1599.42090	-135.23820	1031.34375	1310.92798	-13.36717	677.06763	1312.28552	-34.38618	493.30853	1316.45679	-181.52916	378.69482	1333.06580	-309.81140	196.68164	1393.22668	-339.70914	184.55069	1277.79187	-231.78587	72.05362	1707.11206	39.87096	677.18304	1661.08545	51.85033	467.89792	1662.89893	20.07550	280.94250	1617.75146	9.48161	89.34207	1561.42139	-22.67733	37.70737	1637.03784	162.66811	37.68699	1562.01465	-123.78816	1782.73047	-3360.29590	2845.23047	1034.18018						 
210	2.090	1467.62500	-2.97359	1764.03589	1609.53918	10.45549	1739.13818	1457.72668	-99.59889	1648.46729	1598.35010	-97.54548	1618.22388	1519.95251	-117.15517	1521.05347	1527.80383	-162.20880	1246.31714	1505.72681	24.33014	1460.96265	1510.41699	80.80519	1288.61926	1583.46826	-168.62511	1348.34827	1337.24646	-43.05486	1505.38794	1253.92139	-49.11378	1305.21252	1242.60925	-48.85936	1163.13147	1231.93445	-25.36242	1032.22192	1266.46765	44.08210	915.33240	1232.95605	-0.74211	911.14960	1232.80908	25.60575	849.32983	1705.07495	-32.98108	1486.70215	1786.99011	-59.12066	1293.47888	1800.07629	-42.06054	1147.09204	1816.14978	-9.20942	1031.36523	1793.16846	44.12643	907.57996	1826.05542	-2.17707	901.66083	1827.37305	38.15468	841.03192	1383.66260	64.08591	985.70648	1637.52686	91.54918	983.06793	1487.20703	-137.12900	1026.46765	1602.62646	-128.63785	1032.45874	1312.47522	-2.18392	678.72131	1314.08264	-19.85670	494.75519	1320.12207	-166.01648	379.25873	1337.60754	-292.62875	196.02887	1397.56763	-322.24005	182.33185	1280.16602	-211.89389	74.01662	1708.56018	44.57178	677.42151	1661.47485	53.44565	467.39597	1663.19141	20.47066	281.01849	1617.71484	9.59259	89.44646	1561.41919	-22.69556	37.76879	1637.01062	162.71214	37.66333	1564.59851	-116.78143	1783.70044	-3357.16284	2846.00586	1034.10828						 
211	2.100	1469.62170	3.79209	1765.07776	1611.53040	17.57376	1740.22021	1459.86682	-92.59624	1649.22961	1600.59729	-90.20900	1618.92371	1522.89966	-109.79465	1522.28687	1531.66357	-155.56911	1247.81494	1507.65662	31.46694	1461.78198	1511.99207	87.47160	1289.29883	1587.46045	-161.26637	1350.12598	1339.65027	-37.12846	1506.12646	1256.69824	-44.36610	1305.81409	1245.64343	-44.74543	1163.72864	1235.03503	-21.28093	1032.92200	1269.31909	47.27671	915.61768	1236.29089	2.55371	911.50494	1235.95142	28.35063	849.46588	1707.42981	-23.86515	1488.07056	1789.77795	-49.34179	1294.72778	1803.12354	-32.11499	1148.49854	1818.80066	0.95967	1032.79834	1796.07166	54.56177	909.18689	1828.99036	8.16040	903.08270	1830.25842	48.70070	842.63806	1384.50073	69.32871	987.05133	1638.98157	97.85999	983.33057	1490.41956	-131.27026	1027.57776	1605.54236	-122.20239	1033.51892	1313.96960	8.83080	680.27997	1315.78333	-5.65942	496.10526	1323.64465	-150.52959	379.18243	1342.08679	-274.79919	194.46111	1402.33191	-303.83734	179.74330	1283.05469	-191.53983	75.32715	1709.64453	48.55132	677.27740	1662.67505	55.70483	467.64209	1663.66443	21.33343	281.12473	1617.80969	9.82337	89.62052	1561.42053	-22.71530	37.82278	1636.93616	162.72734	37.53273	1566.80054	-109.84948	1784.40588	-3360.42529	2845.22900	1034.06494						 
